<?xml version="1.0" standalone="no"?>
<!DOCTYPE svg PUBLIC "-//W3C//DTD SVG 20010904//EN"
 "http://www.w3.org/TR/2001/REC-SVG-20010904/DTD/svg10.dtd">
<svg version="1.0" xmlns="http://www.w3.org/2000/svg"
 width="1920.000000pt" height="480.000000pt" viewBox="0 0 1920.000000 480.000000"
 preserveAspectRatio="xMidYMid meet">

<g transform="translate(0.000000,480.000000) scale(0.100000,-0.100000)"
fill="#000000" stroke="none">
<path d="M6853 4789 c-1253 -40 -1937 -226 -2618 -710 -212 -151 -467 -363
-720 -599 -128 -119 -2375 -2344 -3020 -2989 l-490 -491 1350 0 1350 0 460
447 c1057 1026 1687 1632 1909 1836 497 455 840 613 1476 681 359 39 412 39
3981 43 l3485 4 894 894 895 895 -4360 -2 c-2398 0 -4464 -5 -4592 -9z"/>
<path d="M13915 2400 l-2400 -2400 1440 0 1440 0 2400 2400 2400 2400 -1440 0
-1440 0 -2400 -2400z"/>
<path d="M7205 2700 c-909 -26 -1313 -136 -1735 -473 -171 -135 -326 -286
-1320 -1281 l-945 -946 1254 0 1255 0 370 368 c220 218 406 394 456 431 155
114 327 182 538 211 187 25 554 29 2707 30 l2260 0 835 835 835 835 -3130 -2
c-1722 -1 -3242 -5 -3380 -8z"/>
<path d="M15620 555 l0 -45 95 0 95 0 0 -255 0 -255 50 0 50 0 0 255 0 255 95
0 95 0 0 45 0 45 -240 0 -240 0 0 -45z"/>
<path d="M16180 300 l0 -300 45 0 45 0 2 233 3 232 84 -232 84 -233 42 0 42 0
84 233 84 232 3 -232 2 -233 50 0 50 0 0 300 0 300 -74 0 -74 0 -59 -172 c-33
-95 -68 -198 -78 -228 -10 -30 -20 -58 -24 -62 -3 -4 -42 97 -87 225 l-81 232
-72 3 -71 3 0 -301z"/>
</g>
</svg>
